<svg xmlns="http://www.w3.org/2000/svg" viewBox="0 0 2000 1000"><title>logo_sl_bronze-partner</title><path d="M232.88,426c0,32.23,25.29,44.78,54,44.78,18.81,0,47.52-5.44,47.52-30.17,0-26.14-36.58-30.56-72.48-40-36.25-9.49-72.82-23.4-72.82-68.87,0-49.53,47.18-73.28,91.28-73.28,51,0,97.79,22.06,97.79,78h-52c-1.7-29.17-22.55-36.64-48.19-36.64-17.1,0-36.93,7.12-36.93,27.49,0,18.66,11.62,21,72.82,36.64,17.77,4.4,72.48,15.6,72.48,70.56,0,44.44-35.21,77.68-101.54,77.68-54,0-104.61-26.45-103.93-86.17Z"/><path d="M436.57,429.78c1.36,30.78,16.4,44.79,43.42,44.79,19.49,0,35.22-12,38.29-22.92H561c-13.68,41.71-42.73,59.49-82.73,59.49-55.73,0-90.26-38.3-90.26-93,0-53,36.59-93.34,90.26-93.34,60.17,0,89.23,50.6,85.82,104.95Zm79-30.77c-4.44-24.61-15-37.61-38.63-37.61-30.77,0-39.66,23.93-40.34,37.61Z"/><path d="M568.61,329.6h46.14v24.63h1c12.31-19.84,33.5-29.41,54-29.41,51.62,0,64.61,29,64.61,72.81V506.36H685.87V406.53c0-29.06-8.54-43.42-31.12-43.42-26.32,0-37.6,14.7-37.6,50.59v92.66H568.61Z"/><path d="M784.48,448.92c.35,21.21,18.13,29.75,37.27,29.75,14,0,31.78-5.47,31.78-22.56,0-14.71-20.17-19.83-55-27.35-28-6.15-56.06-16.07-56.06-47.18,0-45.13,39-56.75,76.92-56.75,38.63,0,74.18,13,77.94,56.4H851.13c-1.35-18.8-15.72-23.92-33.15-23.92-10.93,0-27,2-27,16.4,0,17.43,27.34,19.83,55,26.34,28.37,6.48,56.07,16.74,56.07,49.55,0,46.51-40.34,61.55-80.68,61.55-41,0-81-15.39-83.09-62.23Z"/><path d="M954.7,302.26H906.16v-40H954.7ZM906.16,329.6H954.7V506.36H906.16Z"/><path d="M1050.72,324.83c55.71,0,91.63,36.92,91.63,93.32,0,56.08-35.91,93-91.63,93-55.38,0-91.28-36.92-91.28-93,0-56.41,35.9-93.32,91.28-93.32m0,149.74c33.16,0,43.08-28.38,43.08-56.42,0-28.38-9.91-56.75-43.08-56.75-32.82,0-42.74,28.37-42.74,56.75,0,28,9.92,56.42,42.74,56.42"/><path d="M1151.58,508.22V268.61h48.78v198.9h96.44v40.71Z" style="fill:#82e83f"/><path d="M1347.32,386.6l-42-7.59q7.08-25.35,24.4-37.57t51.41-12.19q31,0,46.14,7.33t21.34,18.62q6.19,11.29,6.18,41.45l-.5,54.06q0,23.08,2.23,34a99.35,99.35,0,0,0,8.32,23.47H1419q-1.82-4.62-4.44-13.67c-.78-2.75-1.32-4.57-1.65-5.44a83.3,83.3,0,0,1-25.38,17.31,72.67,72.67,0,0,1-28.84,5.76q-27,0-42.6-14.66t-15.58-37.09a49.86,49.86,0,0,1,7.09-26.44,46.34,46.34,0,0,1,19.86-17.8q12.78-6.17,36.84-10.81,32.46-6.08,45-11.36V389.4q0-13.36-6.59-19t-24.88-5.68q-12.37,0-19.29,4.86T1347.32,386.6Zm62,37.57q-8.91,3-28.18,7.08t-25.22,8.07q-9.05,6.42-9.05,16.31a22.65,22.65,0,0,0,7.25,16.8q7.25,7.11,18.46,7.09,12.5,0,23.89-8.24a29,29,0,0,0,11-15.33q1.8-5.92,1.81-22.57Z" style="fill:#82e83f"/><path d="M1473.3,508.22V266.63h46.3v87q21.43-24.39,50.76-24.39,32,0,52.9,23.16t20.92,66.49q0,44.83-21.34,69.05T1571,512.17a64.09,64.09,0,0,1-29.58-7.49,70.73,70.73,0,0,1-25.14-22.17v25.71Zm46-91.3q0,27.18,8.57,40.21,12,18.45,32,18.46,15.32,0,26.12-13.1t10.79-41.29q0-30-10.88-43.25T1558,364.68q-16.64,0-27.69,12.95T1519.26,416.92Z" style="fill:#82e83f"/><path d="M1641.61,458.29l46.47-7.1q3,13.52,12,20.53t25.37,7q18,0,27-6.59a14.74,14.74,0,0,0,6.1-12.36,12.15,12.15,0,0,0-3.3-8.73q-3.45-3.29-15.49-6.1-56-12.35-71-22.58Q1648,408.19,1648,383q0-22.74,18-38.24t55.68-15.48q35.93,0,53.4,11.7t24.06,34.61l-43.68,8.07q-2.8-10.21-10.62-15.65t-22.33-5.44q-18.29,0-26.2,5.11-5.27,3.63-5.27,9.39,0,4.94,4.61,8.4,6.25,4.62,43.26,13t51.66,20.6q14.51,12.35,14.5,34.44,0,24.07-20.1,41.37t-59.49,17.3q-35.76,0-56.61-14.51A66.81,66.81,0,0,1,1641.61,458.29Z" style="fill:#82e83f"/><rect x="153.8" y="578.39" width="1692.4" height="3.81"/><path d="M194.92,647h47.4c17.46-.28,36.62,4.26,36.62,25.4,0,9.08-5.39,16.46-13.34,20.44,10.79,3.12,17.46,12.49,17.46,24,0,24.13-17.74,31.51-39.45,31.51H194.92Zm26.4,39.88h20.44c4.54,0,10.79-2.41,10.79-9.65s-5.25-9.79-10.79-9.79H221.31Zm0,40.3h21.15c8.37,0,14.19-3,14.19-11.35,0-8.94-6.24-11.92-14.19-11.92H221.31Z"/><path d="M324.34,647H376c17.88,0,35.48,8.09,35.48,28.53,0,10.93-5.25,21.29-15.89,25.4v.28c10.79,2.56,13.91,14.62,14.76,24.27.28,4.26.71,19.16,4.26,22.85H388.49c-2.27-3.41-2.7-13.34-3-16.18-.71-10.22-2.41-20.72-14.76-20.72h-20v36.9h-26.4Zm26.4,44h22.14c7.95,0,12.2-4.26,12.2-11.92s-6-10.93-13.34-10.93h-21Z"/><path d="M499.89,644.91c31.93,0,50,23.42,50,52.79s-18,52.79-50,52.79-50-23.42-50-52.79S468,644.91,499.89,644.91Zm0,82.88c17,0,23.56-15,23.56-30.09s-6.53-30.09-23.56-30.09-23.56,15-23.56,30.09S482.86,727.79,499.89,727.79Z"/><path d="M590.86,647H618l35.2,62.44h.28V647h24.84V748.37H651.17L616,685.21h-.28v63.15H590.86Z"/><path d="M717.59,726.8l51.94-57.05H720.71V647h82.88v20.44l-53.22,58.19h55.06v22.71H717.59Z"/><path d="M844.89,647h80.75v21.15H871.28v17.74H921v20.44H871.28v19.3h55.77v22.71H844.89Z"/><path d="M1036.61,647h45c18.17,0,30.09,10.64,30.09,29s-11.92,29-30.09,29h-35.34v43.43h-9.65Zm9.65,49.67h33.21c13.34,0,22.57-6.81,22.57-20.72s-9.22-20.72-22.57-20.72h-33.21Z"/><path d="M1172.14,647h10.79l39.74,101.33h-10.36L1200,716.86h-46.12l-12.2,31.51h-10.36Zm-15.33,61.59h39.88l-19.58-51.94Z"/><path d="M1258.85,647h46.41c16.75,0,30.8,8.09,30.8,26.4,0,12.77-6.67,23.27-19.73,25.83v.28c13.2,1.7,17,10.79,17.74,22.85.43,7,.43,20.86,4.68,26h-10.64c-2.41-4-2.41-11.5-2.7-15.75-.85-14.19-2-29.95-20.29-29.24H1268.5v45h-9.65Zm9.65,48.11h36c11.78,0,21.86-7.38,21.86-19.73s-7.38-20.15-21.86-20.15h-36Z"/><path d="M1370.4,647h80.33v8.23h-35.34v93.1h-9.65v-93.1H1370.4Z"/><path d="M1487.05,647h10.79l59,85.72h.28V647h9.65V748.37H1556l-59-85.72h-.28v85.72h-9.65Z"/><path d="M1614.07,647h70v8.23h-60.31v36.62h56.48v8.23h-56.48v40h61v8.23h-70.68Z"/><path d="M1725.18,647h46.41c16.75,0,30.8,8.09,30.8,26.4,0,12.77-6.67,23.27-19.73,25.83v.28c13.2,1.7,17,10.79,17.74,22.85.43,7,.43,20.86,4.68,26h-10.64c-2.41-4-2.41-11.5-2.7-15.75-.85-14.19-2-29.95-20.29-29.24h-36.61v45h-9.65Zm9.65,48.11h36c11.78,0,21.86-7.38,21.86-19.73s-7.38-20.15-21.86-20.15h-36Z"/></svg>