<svg width="177" height="238" viewBox="0 0 177 238" fill="none" xmlns="http://www.w3.org/2000/svg">
<path d="M139.812 183.8C142.73 201.473 145.648 219.145 148.566 237.145C147.594 236.818 146.945 236.818 145.972 236.491C127.49 230.273 109.008 223.727 90.5255 217.509C89.5528 217.182 88.2558 217.182 86.9588 217.509C70.422 223.073 53.8852 228.963 37.3484 234.527C34.7544 235.509 32.4847 236.163 29.5664 237.145C32.4847 218.818 35.4029 201.145 38.3212 183.145C72.3675 204.745 105.765 204.091 139.812 183.8Z" fill="url(#paint0_linear_158_19074)"/>
<path d="M117.197 5.42814L117.196 5.41929C117.09 5.48072 116.984 5.54185 116.878 5.60267V5.02857H55.2547L55.2968 5.2494C55.1769 5.17622 55.0569 5.10261 54.937 5.02856C54.3403 8.60989 53.7436 12.1695 53.1469 15.7291C51.9534 22.849 50.7599 29.9688 49.5664 37.2623C50.1871 37.0591 50.7599 36.8794 51.3098 36.7069C52.346 36.3819 53.3007 36.0824 54.3402 35.6995C59.4124 34.039 64.4846 32.3296 69.5568 30.6202C74.6291 28.9109 79.7013 27.2015 84.7735 25.541C85.5691 25.3456 86.3648 25.3456 86.9615 25.541C92.6304 27.3968 98.2993 29.3016 103.968 31.2063C109.637 33.111 115.306 35.0157 120.975 36.8716C121.273 36.9693 121.522 37.0181 121.771 37.067C122.019 37.1158 122.268 37.1647 122.566 37.2623C120.777 26.5208 118.987 15.9744 117.197 5.42814Z" fill="url(#paint1_linear_158_19074)"/>
<path d="M83.1399 5.34387L85.5855 8.19014C88.9997 12.1637 93.6217 15.9992 99.8665 20.2478C103.889 22.9838 108.257 25.672 112.766 28.446L113.541 28.9233L113.546 28.9263L115.117 29.8889L115.118 29.8897L115.12 29.8912L115.122 29.8923C120.443 33.1632 126.002 36.6229 131.333 40.3633C131.334 40.364 131.336 40.3648 131.337 40.3656L131.343 40.3699L131.344 40.3704C150.826 53.9792 172.553 74.1053 172.566 113.02V113.036L172.566 113.052C172.341 134.935 163.811 155.931 148.677 171.873L148.677 171.874L148.675 171.875L148.653 171.899L148.651 171.901L148.65 171.902C140.957 180.17 131.618 186.77 121.223 191.286C110.828 195.802 99.6015 198.137 88.2511 198.145H88.2486C38.5897 198.142 3.58777 153.396 3.56641 113.083L3.5664 113.075L3.56644 113.067C3.74071 76.9623 23.2712 56.2499 40.8233 41.8796L40.8246 41.8786L40.8355 41.8696L40.8368 41.8685L40.8374 41.868C45.4336 38.0702 50.0459 34.611 55.3056 30.7477C55.306 30.7474 55.3063 30.7471 55.3067 30.7469L55.3188 30.738L55.3287 30.7307L55.9385 30.2868L55.9498 30.2784C55.9499 30.2784 55.95 30.2783 55.9501 30.2782C60.5238 26.8981 64.8759 23.6693 68.8273 20.4247L68.8283 20.4239L68.8289 20.4234L83.1399 5.34387ZM83.1399 5.34387L80.902 8.35618M83.1399 5.34387L80.902 8.35618M80.902 8.35618C78.0139 12.2436 74.1012 16.0894 68.8311 20.4216L80.902 8.35618Z" fill="#6E7497" stroke="#B7BACB" stroke-width="6"/>
<path fill-rule="evenodd" clip-rule="evenodd" d="M88.5664 173.145C121.703 173.145 148.566 146.282 148.566 113.145C148.566 80.0082 121.703 53.1453 88.5664 53.1453C55.4293 53.1453 28.5664 80.0082 28.5664 113.145C28.5664 146.282 55.4293 173.145 88.5664 173.145ZM88.5664 183.145C127.226 183.145 158.566 151.805 158.566 113.145C158.566 74.4853 127.226 43.1453 88.5664 43.1453C49.9065 43.1453 18.5664 74.4853 18.5664 113.145C18.5664 151.805 49.9065 183.145 88.5664 183.145Z" fill="url(#paint2_linear_158_19074)"/>
<g filter="url(#filter0_d_158_19074)">
<circle cx="88.5664" cy="113.145" r="60" fill="white"/>
</g>
<path d="M80.0352 70.142C80.6229 70.1482 81.1871 70.3738 81.6168 70.7747C81.7831 70.3474 82.0078 69.9452 82.2847 69.5797C81.6433 69.0759 80.8507 68.8035 80.0352 68.8064C79.0564 68.8064 78.1177 69.1952 77.4256 69.8874C76.7335 70.5795 76.3447 71.5182 76.3447 72.4969C76.3447 73.4757 76.7335 74.4144 77.4256 75.1065C78.1177 75.7986 79.0564 76.1874 80.0352 76.1874C80.8507 76.1904 81.6433 75.9179 82.2847 75.4142C82.0078 75.0487 81.7831 74.6465 81.6168 74.2192C81.3354 74.4816 80.9939 74.671 80.6223 74.771C80.2507 74.8709 79.8603 74.8782 79.4852 74.7923C79.1101 74.7064 78.7618 74.5298 78.4707 74.2781C78.1796 74.0265 77.9546 73.7073 77.8154 73.3485C77.6763 72.9897 77.6271 72.6023 77.6723 72.2202C77.7175 71.8381 77.8557 71.4728 78.0747 71.1564C78.2938 70.84 78.587 70.5821 78.9287 70.4053C79.2705 70.2285 79.6504 70.1381 80.0352 70.142V70.142ZM72.4082 67.4708C72.2951 67.4696 72.1844 67.5025 72.0903 67.5652C71.9963 67.6279 71.9233 67.7175 71.8809 67.8223L68.2256 75.9063H69.6666L70.1939 74.7464H74.6225L75.1497 75.9063H76.5907L72.9354 67.8223C72.8975 67.7145 72.8255 67.6219 72.7305 67.5585C72.6354 67.4951 72.5223 67.4643 72.4082 67.4708ZM70.7914 73.4459L72.4082 69.8609L74.025 73.4459H70.7914ZM98.8041 75.9063H100.175V68.947H98.8041V75.9063ZM89.8766 72.4969C89.8772 71.542 89.5078 70.624 88.8458 69.9358C88.1838 69.2476 87.2808 68.8428 86.3266 68.8064C86.2563 68.8064 86.2212 68.8416 86.2563 68.8767C86.4963 69.4195 86.8569 69.9003 87.3108 70.2826C88.084 70.8801 88.5409 71.5831 88.5409 72.4618C88.5409 72.7664 88.4809 73.0681 88.3644 73.3495C88.2478 73.631 88.0769 73.8867 87.8615 74.1021C87.6461 74.3175 87.3904 74.4884 87.1089 74.605C86.8275 74.7215 86.5258 74.7815 86.2212 74.7815C85.9166 74.7815 85.6149 74.7215 85.3335 74.605C85.052 74.4884 84.7963 74.3175 84.5809 74.1021C84.3655 73.8867 84.1946 73.631 84.078 73.3495C83.9614 73.0681 83.9014 72.7664 83.9014 72.4618C83.9014 71.5831 84.3584 70.8801 85.0965 70.2826C85.554 69.9038 85.9154 69.4221 86.1509 68.8767C86.186 68.8064 86.186 68.7713 86.1158 68.7713C85.1492 68.7897 84.2285 69.1866 83.5515 69.8767C82.8745 70.5669 82.4954 71.4951 82.4955 72.4618C82.523 73.4129 82.9202 74.3157 83.6027 74.9786C84.2853 75.6415 85.1994 76.0121 86.1509 76.0117C87.0507 76.0355 87.9314 75.7501 88.6464 75.2033L89.3142 75.8711H91.3528L89.4899 74.1137C89.7401 73.6112 89.8723 73.0583 89.8766 72.4969V72.4969ZM106.853 68.947V70.0014L106.572 69.7554C106.307 69.443 105.979 69.1905 105.61 69.0148C105.24 68.839 104.837 68.744 104.428 68.7361C103.987 68.7275 103.55 68.8177 103.148 69.0002C102.747 69.1827 102.391 69.4527 102.108 69.7906C101.472 70.5053 101.133 71.4354 101.159 72.3915C101.126 73.3699 101.465 74.3246 102.108 75.0627C102.39 75.376 102.733 75.6283 103.116 75.8043C103.499 75.9802 103.913 76.0761 104.335 76.0859C104.756 76.0958 105.175 76.0195 105.566 75.8617C105.956 75.7039 106.311 75.4679 106.607 75.1682L106.853 74.9221V75.8711H108.224V68.947H106.853ZM106.326 74.2192C106.126 74.4499 105.877 74.6328 105.597 74.7545C105.317 74.8761 105.014 74.9334 104.709 74.9221C104.412 74.9236 104.119 74.858 103.851 74.7302C103.583 74.6024 103.348 74.4157 103.162 74.184C102.754 73.6777 102.542 73.0414 102.565 72.3915C102.549 71.7579 102.776 71.1422 103.198 70.6693C103.381 70.4379 103.617 70.2535 103.886 70.1312C104.155 70.009 104.449 69.9525 104.744 69.9663C105.049 69.955 105.353 70.0123 105.632 70.134C105.912 70.2556 106.161 70.4386 106.361 70.6693C106.764 71.1648 106.976 71.7883 106.958 72.4266C106.988 73.0837 106.761 73.7266 106.326 74.2192V74.2192ZM96.0977 72.4266C96.0977 73.8677 95.3596 74.7815 94.1997 74.7815C93.0398 74.7815 92.2666 73.8677 92.2666 72.4266V68.947H90.8958V72.4266C90.8958 74.5706 92.2666 76.1171 94.1646 76.1171C96.0625 76.1171 97.5036 74.5706 97.5036 72.4266V68.947H96.0977V72.4266Z" fill="#232C61"/>
<path d="M72.5493 94.1873C74.6293 94.1873 75.9693 92.7573 75.9693 90.8573C75.9693 88.9673 74.6293 87.5173 72.5493 87.5173H70.2693V94.1873H72.5493ZM72.5493 93.4473H71.0993V88.2573H72.5493C74.1993 88.2573 75.1093 89.4173 75.1093 90.8573C75.1093 92.2873 74.1693 93.4473 72.5493 93.4473ZM77.9912 94.1873V90.7673C78.2112 90.3773 78.8412 89.9973 79.3112 89.9973C79.4212 89.9973 79.5112 90.0073 79.6012 90.0173V89.2473C78.9412 89.2473 78.3812 89.6273 77.9912 90.1273V89.3573H77.2412V94.1873H77.9912ZM84.552 94.1873V89.3573H83.802V92.9073C83.522 93.2973 82.962 93.6373 82.382 93.6373C81.722 93.6373 81.292 93.3873 81.292 92.5373V89.3573H80.542V92.7673C80.542 93.8073 81.072 94.3073 82.082 94.3073C82.802 94.3073 83.432 93.9273 83.802 93.5073V94.1873H84.552ZM88.4298 94.3073C89.6998 94.3073 90.5798 93.3273 90.5798 91.7673C90.5798 90.1973 89.6998 89.2373 88.4298 89.2373C87.7498 89.2373 87.1498 89.5873 86.7998 90.0773V89.3573H86.0498V96.0273H86.7998V93.4573C87.1998 93.9873 87.7698 94.3073 88.4298 94.3073ZM88.2398 93.6373C87.6498 93.6373 87.0598 93.2773 86.7998 92.8573V90.6773C87.0598 90.2573 87.6498 89.9073 88.2398 89.9073C89.2098 89.9073 89.7898 90.6973 89.7898 91.7673C89.7898 92.8373 89.2098 93.6373 88.2398 93.6373ZM95.5425 94.1873V90.8673C95.5425 89.6973 94.7025 89.2373 93.6725 89.2373C92.8825 89.2373 92.2625 89.4973 91.7425 90.0373L92.0925 90.5573C92.5225 90.0873 92.9925 89.8873 93.5725 89.8873C94.2725 89.8873 94.7925 90.2573 94.7925 90.8973V91.7673C94.4025 91.3273 93.8525 91.1173 93.1925 91.1173C92.3725 91.1173 91.5125 91.6173 91.5125 92.7073C91.5125 93.7573 92.3825 94.3073 93.1925 94.3073C93.8425 94.3073 94.4025 94.0773 94.7925 93.6373V94.1873H95.5425ZM93.4725 93.7673C92.7625 93.7673 92.2725 93.3273 92.2725 92.7073C92.2725 92.0973 92.7625 91.6573 93.4725 91.6573C93.9925 91.6573 94.5025 91.8573 94.7925 92.2473V93.1673C94.5025 93.5673 93.9925 93.7673 93.4725 93.7673ZM97.8057 94.1873V87.5173H97.0557V94.1873H97.8057ZM104.05 94.3073C105.36 94.3073 106.44 93.6273 106.44 92.4973C106.44 91.6073 105.68 90.9973 104.85 90.7473C105.62 90.5273 106.34 90.0173 106.34 89.1473C106.34 87.9473 105.15 87.4173 104.05 87.4173C102.94 87.4173 101.77 87.9473 101.77 89.1473C101.77 90.0173 102.48 90.5273 103.25 90.7473C102.42 90.9973 101.66 91.6073 101.66 92.4973C101.66 93.6373 102.73 94.3073 104.05 94.3073ZM104.05 90.4073C103.65 90.3373 102.61 90.0673 102.61 89.2573C102.61 88.5673 103.24 88.1573 104.05 88.1573C104.85 88.1573 105.5 88.5673 105.5 89.2573C105.5 90.0673 104.46 90.3373 104.05 90.4073ZM104.05 93.5673C103.22 93.5673 102.5 93.1273 102.5 92.4073C102.5 91.5373 103.64 91.1673 104.05 91.1173C104.46 91.1673 105.6 91.5373 105.6 92.4073C105.6 93.1273 104.87 93.5673 104.05 93.5673Z" fill="#232C61"/>
<path d="M45.5381 110.187C48.0341 110.187 49.7741 108.603 49.7741 106.179C49.7741 103.779 48.0341 102.183 45.5261 102.183H42.3701V110.187H45.5381ZM45.5261 108.687H44.0741V103.683H45.5381C47.1701 103.683 48.0341 104.775 48.0341 106.179C48.0341 107.547 47.1101 108.687 45.5261 108.687ZM57.4754 110.187L55.6634 107.139C56.5274 106.935 57.4274 106.167 57.4274 104.763C57.4274 103.275 56.3954 102.183 54.7274 102.183H50.9834V110.187H52.6874V107.343H53.9354L55.5074 110.187H57.4754ZM54.4874 105.843H52.6874V103.683H54.4874C55.1594 103.683 55.6754 104.091 55.6754 104.751C55.6754 105.435 55.1594 105.843 54.4874 105.843ZM62.3063 110.331C64.7423 110.331 65.9183 108.963 65.9183 106.983V102.183H64.1783V106.935C64.1783 108.051 63.5423 108.819 62.3063 108.819C61.0703 108.819 60.4223 108.051 60.4223 106.935V102.183H58.6943V106.983C58.6943 108.963 59.8703 110.331 62.3063 110.331ZM69.2108 110.187V107.331H71.2508C72.9788 107.331 73.9388 106.155 73.9388 104.763C73.9388 103.359 72.9908 102.183 71.2508 102.183H67.5068V110.187H69.2108ZM71.0108 105.831H69.2108V103.683H71.0108C71.6828 103.683 72.1988 104.091 72.1988 104.763C72.1988 105.423 71.6828 105.831 71.0108 105.831ZM81.5802 110.187L78.4962 102.183H76.3602L73.2762 110.187H75.2082L75.7122 108.831H79.1442L79.6482 110.187H81.5802ZM78.6762 107.331H76.1802L77.4282 103.887L78.6762 107.331ZM87.3473 110.187V108.687H83.9633V102.183H82.2473V110.187H87.3473ZM97.2412 110.187V108.687H93.2812V106.863H97.1572V105.363H93.2812V103.683H97.2412V102.183H91.5772V110.187H97.2412ZM105.833 110.187L102.929 106.071L105.653 102.183H103.601L101.789 104.919L99.9533 102.183H97.9253L100.649 106.083L97.7452 110.187H99.7733L101.789 107.259L103.793 110.187H105.833ZM108.293 110.187V107.331H110.333C112.061 107.331 113.021 106.155 113.021 104.763C113.021 103.359 112.073 102.183 110.333 102.183H106.589V110.187H108.293ZM110.093 105.831H108.293V103.683H110.093C110.765 103.683 111.281 104.091 111.281 104.763C111.281 105.423 110.765 105.831 110.093 105.831ZM119.753 110.187V108.687H115.793V106.863H119.669V105.363H115.793V103.683H119.753V102.183H114.089V110.187H119.753ZM127.577 110.187L125.765 107.139C126.629 106.935 127.529 106.167 127.529 104.763C127.529 103.275 126.497 102.183 124.829 102.183H121.085V110.187H122.789V107.343H124.037L125.609 110.187H127.577ZM124.589 105.843H122.789V103.683H124.589C125.261 103.683 125.777 104.091 125.777 104.751C125.777 105.435 125.261 105.843 124.589 105.843ZM132.243 110.187V103.683H134.571V102.183H128.187V103.683H130.527V110.187H132.243Z" fill="#232C61"/>
<path d="M48.2246 118.187L128.225 118.187" stroke="#232C61"/>
<path d="M65.5688 137.319C67.0428 137.319 67.9558 136.538 68.5168 135.658L67.4168 135.108C67.0648 135.713 66.3498 136.175 65.5688 136.175C64.1168 136.175 63.0388 135.053 63.0388 133.524C63.0388 131.973 64.1168 130.873 65.5688 130.873C66.3498 130.873 67.0648 131.324 67.4168 131.94L68.5058 131.368C67.9668 130.488 67.0428 129.729 65.5688 129.729C63.4018 129.729 61.7188 131.258 61.7188 133.524C61.7188 135.779 63.4018 137.319 65.5688 137.319ZM74.6728 137.187V136.054H70.9328V134.008H74.5958V132.875H70.9328V130.983H74.6728V129.85H69.6458V137.187H74.6728ZM81.7915 137.187L79.9875 134.305C80.8785 134.162 81.7365 133.447 81.7365 132.149C81.7365 130.785 80.7795 129.85 79.3275 129.85H76.1045V137.187H77.3915V134.448H78.6785L80.2955 137.187H81.7915ZM79.1625 133.315H77.3915V130.983H79.1625C79.8885 130.983 80.4165 131.434 80.4165 132.138C80.4165 132.853 79.8885 133.315 79.1625 133.315ZM86.061 137.187V130.983H88.283V129.85H82.552V130.983H84.774V137.187H86.061ZM90.7706 137.187V129.85H89.4836V137.187H90.7706ZM93.7273 137.187V134.008H97.3903V132.875H93.7273V130.983H97.4673V129.85H92.4403V137.187H93.7273ZM100.036 137.187V129.85H98.7486V137.187H100.036ZM106.732 137.187V136.054H102.992V134.008H106.655V132.875H102.992V130.983H106.732V129.85H101.705V137.187H106.732ZM110.903 137.187C113.191 137.187 114.731 135.68 114.731 133.513C114.731 131.368 113.191 129.85 110.892 129.85H108.164V137.187H110.903ZM110.892 136.054H109.451V130.983H110.903C112.531 130.983 113.411 132.105 113.411 133.513C113.411 134.91 112.487 136.054 110.892 136.054Z" fill="#232C61"/>
<path d="M68.2246 144.187L69.9085 149.37H75.3575L70.9491 152.573L72.633 157.755L68.2246 154.552L63.8162 157.755L65.5001 152.573L61.0917 149.37H66.5408L68.2246 144.187Z" fill="url(#paint3_linear_158_19074)"/>
<path d="M88.2246 144.187L89.9085 149.37H95.3575L90.9491 152.573L92.633 157.755L88.2246 154.552L83.8162 157.755L85.5001 152.573L81.0917 149.37H86.5408L88.2246 144.187Z" fill="url(#paint4_linear_158_19074)"/>
<path d="M108.225 144.187L109.908 149.37H115.358L110.949 152.573L112.633 157.755L108.225 154.552L103.816 157.755L105.5 152.573L101.092 149.37H106.541L108.225 144.187Z" fill="url(#paint5_linear_158_19074)"/>
<defs>
<filter id="filter0_d_158_19074" x="24.5664" y="53.1453" width="128" height="128" filterUnits="userSpaceOnUse" color-interpolation-filters="sRGB">
<feFlood flood-opacity="0" result="BackgroundImageFix"/>
<feColorMatrix in="SourceAlpha" type="matrix" values="0 0 0 0 0 0 0 0 0 0 0 0 0 0 0 0 0 0 127 0" result="hardAlpha"/>
<feOffset dy="4"/>
<feGaussianBlur stdDeviation="2"/>
<feComposite in2="hardAlpha" operator="out"/>
<feColorMatrix type="matrix" values="0 0 0 0 0 0 0 0 0 0 0 0 0 0 0 0 0 0 0.25 0"/>
<feBlend mode="normal" in2="BackgroundImageFix" result="effect1_dropShadow_158_19074"/>
<feBlend mode="normal" in="SourceGraphic" in2="effect1_dropShadow_158_19074" result="shape"/>
</filter>
<linearGradient id="paint0_linear_158_19074" x1="29.5664" y1="194.378" x2="44.2722" y2="253.109" gradientUnits="userSpaceOnUse">
<stop stop-color="#131942"/>
<stop offset="1" stop-color="#B7BACB"/>
</linearGradient>
<linearGradient id="paint1_linear_158_19074" x1="64.7511" y1="37.2623" x2="97.6885" y2="-3.89785" gradientUnits="userSpaceOnUse">
<stop stop-color="#131942"/>
<stop offset="1" stop-color="#B7BACB"/>
</linearGradient>
<linearGradient id="paint2_linear_158_19074" x1="47.6877" y1="183.145" x2="171.731" y2="114.699" gradientUnits="userSpaceOnUse">
<stop stop-color="#131942"/>
<stop offset="1" stop-color="#B7BACB"/>
</linearGradient>
<linearGradient id="paint3_linear_158_19074" x1="63.8447" y1="159.187" x2="77.1351" y2="151.854" gradientUnits="userSpaceOnUse">
<stop stop-color="#EF9B16"/>
<stop offset="0.776042" stop-color="#FEC231"/>
</linearGradient>
<linearGradient id="paint4_linear_158_19074" x1="83.8447" y1="159.187" x2="97.1351" y2="151.854" gradientUnits="userSpaceOnUse">
<stop stop-color="#EF9B16"/>
<stop offset="0.776042" stop-color="#FEC231"/>
</linearGradient>
<linearGradient id="paint5_linear_158_19074" x1="103.845" y1="159.187" x2="117.135" y2="151.854" gradientUnits="userSpaceOnUse">
<stop stop-color="#EF9B16"/>
<stop offset="0.776042" stop-color="#FEC231"/>
</linearGradient>
</defs>
</svg>
