<?xml version="1.0" encoding="UTF-8"?>
<svg xmlns="http://www.w3.org/2000/svg" xmlns:xlink="http://www.w3.org/1999/xlink" width="1042px" height="781px" viewBox="0 0 650 781" version="1.1">
<defs>
<radialGradient id="radial0" gradientUnits="userSpaceOnUse" cx="50" cy="-51.02" fx="50" fy="-51.02" r="50" gradientTransform="matrix(6.5,0,0,7.549666,0,762.666016)">
<stop offset="0" style="stop-color:rgb(100%,100%,100%);stop-opacity:1;"/>
<stop offset="1" style="stop-color:rgb(100%,100%,100%);stop-opacity:0;"/>
</radialGradient>
</defs>
<g id="surface1">
<path style=" stroke:none;fill-rule:nonzero;fill:rgb(74.509805%,78.431374%,82.352942%);fill-opacity:1;" d="M 609.050781 667.105469 L 325 781 L 40.949219 667.105469 C 16.25 657.339844 0 633.261719 0 606.578125 L 0 65.082031 C 0 29.289062 29.25 0 65 0 L 585 0 C 620.75 0 650 29.289062 650 65.082031 L 650 606.578125 C 650 633.261719 633.75 657.339844 609.050781 667.105469 Z M 609.050781 667.105469 "/>
<path style=" stroke:none;fill-rule:nonzero;fill:url(#radial0);" d="M 650 377.484375 C 650 169.003906 504.492188 0 325 0 C 145.507812 0 0 169.003906 0 377.484375 C 0 585.960938 145.507812 754.964844 325 754.964844 C 504.492188 754.964844 650 585.960938 650 377.484375 Z M 650 377.484375 "/>
<path style=" stroke:none;fill-rule:nonzero;fill:rgb(9.803922%,3.921569%,17.647059%);fill-opacity:1;" d="M 104 430.199219 L 104 442.566406 L 63.699219 442.566406 L 63.699219 377.484375 L 103.351562 377.484375 L 103.351562 389.847656 L 76.699219 389.847656 L 76.699219 403.515625 L 101.398438 403.515625 L 101.398438 415.882812 L 76.699219 415.882812 L 76.699219 430.199219 Z M 167.050781 377.484375 L 167.050781 442.566406 L 157.300781 442.566406 L 129.351562 402.867188 L 129.351562 442.566406 L 116.351562 442.566406 L 116.351562 377.484375 L 126.101562 377.484375 L 154.050781 417.183594 L 154.050781 377.484375 Z M 224.25 389.847656 L 206.699219 389.847656 L 206.699219 442.566406 L 193.699219 442.566406 L 193.699219 389.847656 L 176.148438 389.847656 L 176.148438 377.484375 L 224.25 377.484375 Z M 273 430.199219 L 273 442.566406 L 232.699219 442.566406 L 232.699219 377.484375 L 272.351562 377.484375 L 272.351562 389.847656 L 245.699219 389.847656 L 245.699219 403.515625 L 270.398438 403.515625 L 270.398438 415.882812 L 245.699219 415.882812 L 245.699219 430.199219 Z M 308.75 419.789062 L 299 419.789062 L 299 442.566406 L 286 442.566406 L 286 377.484375 L 312 377.484375 C 323.699219 377.484375 333.449219 387.246094 333.449219 398.960938 C 333.449219 407.421875 328.25 414.582031 321.101562 417.835938 L 335.398438 442.566406 L 321.75 442.566406 Z M 299 408.722656 L 312 408.722656 C 316.550781 408.722656 321.101562 404.167969 321.101562 398.960938 C 321.101562 393.753906 317.199219 389.199219 312 389.199219 L 299 389.199219 Z M 392.601562 399.613281 C 392.601562 411.976562 382.851562 421.738281 370.5 421.738281 L 358.800781 421.738281 L 358.800781 442.566406 L 345.800781 442.566406 L 345.800781 377.484375 L 369.851562 377.484375 C 382.851562 377.484375 392.601562 387.246094 392.601562 399.613281 Z M 379.601562 399.613281 C 379.601562 393.753906 375.699219 389.847656 369.851562 389.847656 L 358.148438 389.847656 L 358.148438 409.375 L 369.851562 409.375 C 375.699219 409.375 379.601562 404.816406 379.601562 399.613281 Z M 425.101562 419.789062 L 415.351562 419.789062 L 415.351562 442.566406 L 402.351562 442.566406 L 402.351562 377.484375 L 428.351562 377.484375 C 440.050781 377.484375 449.800781 387.246094 449.800781 398.960938 C 449.800781 407.421875 444.601562 414.582031 437.449219 417.835938 L 451.75 442.566406 L 438.101562 442.566406 Z M 415.351562 408.722656 L 428.351562 408.722656 C 432.898438 408.722656 437.449219 404.167969 437.449219 398.960938 C 437.449219 393.753906 433.550781 389.199219 428.351562 389.199219 L 415.351562 389.199219 Z M 475.148438 377.484375 L 475.148438 442.566406 L 462.148438 442.566406 L 462.148438 377.484375 Z M 486.199219 427.597656 L 497.25 421.089844 C 499.851562 426.945312 504.398438 430.851562 512.199219 430.851562 C 520 430.851562 522.601562 427.597656 522.601562 423.691406 C 522.601562 419.136719 518.050781 417.183594 508.300781 413.929688 C 498.550781 411.328125 488.800781 406.769531 488.800781 394.40625 C 488.800781 382.039062 499.199219 374.878906 510.25 374.878906 C 520.648438 374.878906 529.101562 380.085938 533.648438 389.199219 L 522.601562 395.707031 C 520 390.5 516.75 387.246094 510.25 387.246094 C 505.050781 387.246094 501.800781 389.847656 501.800781 393.753906 C 501.800781 397.660156 504.398438 399.613281 514.148438 402.867188 C 524.550781 406.121094 535.601562 409.375 535.601562 423.042969 C 535.601562 435.40625 525.851562 442.566406 512.199219 442.566406 C 498.550781 443.867188 489.449219 437.359375 486.199219 427.597656 Z M 586.949219 430.199219 L 586.949219 442.566406 L 546.648438 442.566406 L 546.648438 377.484375 L 586.300781 377.484375 L 586.300781 389.847656 L 559.648438 389.847656 L 559.648438 403.515625 L 584.351562 403.515625 L 584.351562 415.882812 L 559.648438 415.882812 L 559.648438 430.199219 Z M 124.800781 501.140625 C 124.800781 519.363281 111.148438 533.683594 93.601562 533.683594 L 67.601562 533.683594 L 67.601562 468.601562 L 93.601562 468.601562 C 111.148438 468.601562 124.800781 482.917969 124.800781 501.140625 Z M 112.449219 501.140625 C 112.449219 489.425781 104.648438 480.964844 93.601562 480.964844 L 80.601562 480.964844 L 80.601562 521.316406 L 93.601562 521.316406 C 104.648438 521.316406 112.449219 512.855469 112.449219 501.140625 Z M 176.800781 521.316406 L 176.800781 533.683594 L 136.5 533.683594 L 136.5 468.601562 L 176.148438 468.601562 L 176.148438 480.964844 L 149.5 480.964844 L 149.5 494.632812 L 174.199219 494.632812 L 174.199219 507 L 149.5 507 L 149.5 521.316406 Z M 183.300781 468.601562 L 196.949219 468.601562 L 212.550781 518.714844 L 228.148438 468.601562 L 242.449219 468.601562 L 221 533.683594 L 205.398438 533.683594 Z M 291.199219 521.316406 L 291.199219 533.683594 L 250.898438 533.683594 L 250.898438 468.601562 L 290.550781 468.601562 L 290.550781 480.964844 L 263.898438 480.964844 L 263.898438 494.632812 L 288.601562 494.632812 L 288.601562 507 L 263.898438 507 L 263.898438 521.316406 Z M 341.898438 521.316406 L 341.898438 533.683594 L 304.199219 533.683594 L 304.199219 468.601562 L 317.199219 468.601562 L 317.199219 521.316406 Z M 346.449219 501.140625 C 346.449219 482.265625 361.398438 467.296875 380.25 467.296875 C 399.101562 467.296875 414.050781 482.265625 414.050781 501.140625 C 414.050781 520.015625 399.101562 534.984375 380.25 534.984375 C 361.398438 534.984375 346.449219 520.015625 346.449219 501.140625 Z M 401.050781 501.140625 C 401.050781 488.777344 391.949219 479.664062 380.25 479.664062 C 368.550781 479.664062 359.449219 488.777344 359.449219 501.140625 C 359.449219 513.507812 368.550781 522.621094 380.25 522.621094 C 391.949219 522.621094 401.050781 513.507812 401.050781 501.140625 Z M 472.550781 490.726562 C 472.550781 503.09375 462.800781 512.855469 450.449219 512.855469 L 438.75 512.855469 L 438.75 533.683594 L 425.75 533.683594 L 425.75 468.601562 L 449.800781 468.601562 C 462.800781 468.601562 472.550781 478.363281 472.550781 490.726562 Z M 459.550781 490.726562 C 459.550781 484.871094 455.648438 480.964844 449.800781 480.964844 L 438.101562 480.964844 L 438.101562 500.492188 L 449.800781 500.492188 C 455.648438 500.492188 459.550781 495.933594 459.550781 490.726562 Z M 522.601562 521.316406 L 522.601562 533.683594 L 482.300781 533.683594 L 482.300781 468.601562 L 521.949219 468.601562 L 521.949219 480.964844 L 495.300781 480.964844 L 495.300781 494.632812 L 520 494.632812 L 520 507 L 495.300781 507 L 495.300781 521.316406 Z M 557.699219 510.902344 L 547.949219 510.902344 L 547.949219 533.683594 L 534.949219 533.683594 L 534.949219 468.601562 L 560.949219 468.601562 C 572.648438 468.601562 582.398438 478.363281 582.398438 490.078125 C 582.398438 498.539062 577.199219 505.699219 570.050781 508.953125 L 585 533.683594 L 571.351562 533.683594 Z M 547.949219 499.839844 L 560.949219 499.839844 C 565.5 499.839844 570.050781 495.285156 570.050781 490.078125 C 570.050781 484.871094 566.148438 480.316406 560.949219 480.316406 L 547.949219 480.316406 Z M 547.949219 499.839844 "/>
<path style=" stroke:none;fill-rule:nonzero;fill:rgb(39.215687%,15.686275%,70.588237%);fill-opacity:1;" d="M 137.800781 299.382812 C 137.800781 284.414062 148.851562 272.699219 165.101562 272.699219 C 174.851562 272.699219 183.300781 277.90625 187.199219 285.066406 L 181.351562 288.320312 C 178.101562 282.460938 172.25 279.207031 165.101562 279.207031 C 152.75 279.207031 144.949219 288.320312 144.949219 299.382812 C 144.949219 310.449219 153.398438 319.558594 165.101562 319.558594 C 172.25 319.558594 178.75 315.652344 181.351562 310.449219 L 187.199219 313.703125 C 182.648438 321.511719 174.199219 326.066406 165.101562 326.066406 C 148.851562 326.066406 137.800781 314.351562 137.800781 299.382812 Z M 229.449219 318.910156 L 229.449219 325.417969 L 198.25 325.417969 L 198.25 273.351562 L 228.800781 273.351562 L 228.800781 279.859375 L 205.398438 279.859375 L 205.398438 296.128906 L 227.5 296.128906 L 227.5 302.636719 L 205.398438 302.636719 L 205.398438 318.910156 Z M 260.648438 305.242188 L 248.300781 305.242188 L 248.300781 325.417969 L 241.148438 325.417969 L 241.148438 273.351562 L 261.949219 273.351562 C 271.050781 273.351562 278.199219 280.507812 278.199219 289.621094 C 278.199219 296.128906 273.648438 302.636719 267.148438 304.589844 L 279.5 325.417969 L 271.699219 325.417969 Z M 248.300781 299.382812 L 261.949219 299.382812 C 267.148438 299.382812 271.050781 294.828125 271.050781 289.621094 C 271.050781 284.414062 267.800781 279.859375 262.601562 279.859375 L 248.949219 279.859375 L 248.949219 299.382812 Z M 322.398438 279.859375 L 306.800781 279.859375 L 306.800781 325.417969 L 300.300781 325.417969 L 300.300781 279.859375 L 285.351562 279.859375 L 285.351562 273.351562 L 323.050781 273.351562 L 323.050781 279.859375 Z M 339.949219 273.351562 L 339.949219 325.417969 L 332.800781 325.417969 L 332.800781 273.351562 Z M 362.050781 279.859375 L 362.050781 296.78125 L 384.148438 296.78125 L 384.148438 303.289062 L 362.050781 303.289062 L 362.050781 325.417969 L 354.898438 325.417969 L 354.898438 273.351562 L 384.800781 273.351562 L 384.800781 279.859375 Z M 403.648438 273.351562 L 403.648438 325.417969 L 396.5 325.417969 L 396.5 273.351562 Z M 449.800781 318.910156 L 449.800781 325.417969 L 418.601562 325.417969 L 418.601562 273.351562 L 449.148438 273.351562 L 449.148438 279.859375 L 425.75 279.859375 L 425.75 296.128906 L 447.851562 296.128906 L 447.851562 302.636719 L 425.75 302.636719 L 425.75 318.910156 Z M 506.351562 299.382812 C 506.351562 313.703125 495.949219 325.417969 481.648438 325.417969 L 461.5 325.417969 L 461.5 273.351562 L 481.648438 273.351562 C 495.949219 273.351562 506.351562 285.066406 506.351562 299.382812 Z M 499.851562 299.382812 C 499.851562 288.320312 492.699219 279.859375 481.648438 279.859375 L 468 279.859375 L 468 318.910156 L 481.648438 318.910156 C 492.699219 318.910156 499.851562 310.449219 499.851562 299.382812 Z M 650 221.285156 L 0 221.285156 L 0 39.050781 C 0 17.574219 17.550781 0 39 0 L 611 0 C 632.449219 0 650 17.574219 650 39.050781 Z M 650 221.285156 "/>
<path style=" stroke:none;fill-rule:nonzero;fill:rgb(100%,100%,100%);fill-opacity:1;" d="M 562.25 91.117188 L 534.949219 91.117188 C 534.300781 91.117188 533 91.765625 533 93.070312 L 533 104.132812 L 572 104.132812 L 572 107.386719 C 572 112.59375 567.449219 117.148438 562.25 117.148438 L 533 117.148438 L 533 128.214844 C 533 128.863281 533.648438 130.167969 534.949219 130.167969 L 572 130.167969 L 572 133.421875 C 572 138.628906 567.449219 143.183594 562.25 143.183594 L 529.75 143.183594 C 524.550781 143.183594 520 138.628906 520 133.421875 L 520 87.863281 C 520 82.65625 524.550781 78.101562 529.75 78.101562 L 572 78.101562 L 572 81.355469 C 572 86.5625 567.449219 91.117188 562.25 91.117188 Z M 494.648438 121.054688 L 507 143.183594 L 495.949219 143.183594 C 493.351562 143.183594 491.398438 141.882812 490.101562 139.929688 L 481 123.660156 L 455 123.660156 L 455 133.421875 C 455 138.628906 450.449219 143.183594 445.25 143.183594 L 442 143.183594 L 442 87.863281 C 442 82.65625 446.550781 78.101562 451.75 78.101562 L 483.601562 78.101562 C 495.949219 78.101562 507 87.863281 507 100.878906 C 507 109.339844 501.800781 117.800781 494.648438 121.054688 Z M 455 93.070312 L 455 110.640625 L 484.25 110.640625 C 490.101562 110.640625 494 106.085938 494 100.226562 C 494 95.023438 489.449219 91.117188 484.25 91.117188 L 456.949219 91.117188 C 455.648438 91.117188 455 91.765625 455 93.070312 Z M 244.398438 80.703125 L 222.300781 102.832031 C 221.648438 103.484375 220.351562 103.484375 219.699219 102.832031 L 197.601562 80.703125 C 195.648438 78.75 193.699219 78.101562 191.101562 78.101562 C 185.898438 78.101562 182 82.003906 182 87.210938 L 182 143.183594 L 185.25 143.183594 C 190.449219 143.183594 195 138.628906 195 133.421875 L 195 98.277344 C 195 97.625 195.648438 96.972656 196.300781 97.625 L 213.851562 115.199219 C 217.75 119.101562 223.601562 119.101562 227.5 115.199219 L 245.050781 97.625 C 245.699219 96.972656 246.351562 97.625 246.351562 98.277344 L 246.351562 143.183594 L 249.601562 143.183594 C 254.800781 143.183594 259.351562 138.628906 259.351562 133.421875 L 259.351562 87.210938 C 259.351562 82.003906 255.449219 78.101562 250.25 78.101562 C 248.300781 78.101562 246.351562 78.75 244.398438 80.703125 Z M 169 136.675781 L 169 78.101562 L 162.5 78.101562 C 158.601562 78.101562 156 80.703125 156 84.609375 L 156 143.183594 L 162.5 143.183594 C 166.398438 143.183594 169 140.578125 169 136.675781 Z M 143 101.53125 C 143 113.894531 132.601562 123.660156 120.25 123.660156 L 91 123.660156 L 91 133.421875 C 91 138.628906 86.449219 143.183594 81.25 143.183594 L 78 143.183594 L 78 87.863281 C 78 82.65625 82.550781 78.101562 87.75 78.101562 L 119.601562 78.101562 C 132.601562 78.101562 143 88.511719 143 101.53125 Z M 130 101.53125 C 130 95.671875 126.101562 91.117188 120.25 91.117188 L 92.949219 91.117188 C 91.648438 91.117188 91 91.765625 91 93.070312 L 91 110.640625 L 120.25 110.640625 C 125.449219 110.640625 130 106.738281 130 101.53125 Z M 429 110.640625 C 429 128.863281 414.699219 143.183594 396.5 143.183594 C 385.449219 143.183594 375.050781 137.324219 369.199219 128.863281 L 365.300781 122.355469 L 356.199219 136.023438 C 348.398438 148.390625 334.101562 156.199219 318.5 156.199219 C 293.148438 156.199219 273 136.023438 273 110.640625 C 273 85.257812 293.148438 65.082031 318.5 65.082031 C 334.101562 65.082031 348.398438 72.894531 356.199219 85.257812 L 357.5 87.210938 L 349.699219 98.925781 L 345.148438 92.417969 C 339.300781 83.957031 329.550781 78.101562 318.5 78.101562 C 300.300781 78.101562 286 92.417969 286 110.640625 C 286 128.863281 300.300781 143.183594 318.5 143.183594 C 329.550781 143.183594 339.949219 137.324219 345.800781 128.863281 L 369.851562 93.070312 C 375.699219 83.957031 385.449219 78.75 397.148438 78.75 C 414.699219 78.101562 429 92.417969 429 110.640625 Z M 416 110.640625 C 416 99.578125 407.550781 91.117188 396.5 91.117188 C 390 91.117188 383.5 94.371094 380.25 99.578125 L 373.101562 110.640625 L 380.25 121.054688 C 383.5 126.914062 390 130.167969 396.5 130.167969 C 407.550781 130.167969 416 121.707031 416 110.640625 Z M 593.449219 85.910156 L 594.75 87.863281 L 593.449219 87.863281 L 592.148438 85.910156 L 589.550781 85.910156 L 589.550781 87.210938 C 589.550781 87.863281 589.550781 87.863281 588.898438 87.863281 L 588.25 87.863281 L 588.25 82.65625 C 588.25 82.003906 588.898438 82.003906 588.898438 82.003906 L 592.148438 82.003906 C 593.449219 82.003906 594.101562 82.65625 594.101562 83.957031 C 594.75 84.609375 594.101562 85.257812 593.449219 85.910156 Z M 589.550781 82.65625 L 589.550781 84.609375 L 592.148438 84.609375 C 592.800781 84.609375 593.449219 83.957031 592.800781 83.308594 C 592.800781 82.65625 592.148438 82.65625 592.148438 82.65625 Z M 591.5 79.402344 C 588.898438 79.402344 586.300781 82.003906 586.300781 84.609375 C 586.300781 87.210938 588.898438 89.816406 591.5 89.816406 C 594.101562 89.816406 596.699219 87.210938 596.699219 84.609375 C 596.699219 82.003906 594.101562 79.402344 591.5 79.402344 M 591.5 78.101562 C 595.398438 78.101562 598 80.703125 598 84.609375 C 598 88.511719 595.398438 91.117188 591.5 91.117188 C 587.601562 91.117188 585 88.511719 585 84.609375 C 585 80.703125 587.601562 78.101562 591.5 78.101562 Z M 591.5 78.101562 "/>
<path style=" stroke:none;fill-rule:nonzero;fill:rgb(15.686275%,62.7451%,31.37255%);fill-opacity:1;" d="M 455 585.75 L 195 585.75 L 195 728.933594 L 325 781 L 455 728.933594 Z M 455 585.75 "/>
<path style=" stroke:none;fill-rule:nonzero;fill:rgb(100%,100%,100%);fill-opacity:1;" d="M 325 624.800781 C 332.148438 624.800781 338 630.65625 338 637.816406 C 338 644.976562 332.148438 650.832031 325 650.832031 C 317.851562 650.832031 312 644.976562 312 637.816406 C 312 630.65625 317.851562 624.800781 325 624.800781 M 325 683.375 C 342.550781 683.375 362.699219 691.835938 364 696.390625 L 364 702.898438 L 286 702.898438 L 286 696.390625 C 287.300781 691.835938 307.449219 683.375 325 683.375 M 325 611.785156 C 310.699219 611.785156 299 623.5 299 637.816406 C 299 652.136719 310.699219 663.851562 325 663.851562 C 339.300781 663.851562 351 652.136719 351 637.816406 C 351 623.5 339.300781 611.785156 325 611.785156 Z M 325 670.359375 C 307.449219 670.359375 273 678.820312 273 696.390625 L 273 715.917969 L 377 715.917969 L 377 696.390625 C 377 678.820312 342.550781 670.359375 325 670.359375 Z M 325 670.359375 "/>
</g>
</svg>
